<svg width="500" height="518" viewBox="0 0 500 518" fill="none" xmlns="http://www.w3.org/2000/svg">
<path d="M89.3209 94.3173C80.8594 87.2173 79.7557 74.6022 86.8558 66.1407L125.423 20.178L316.934 180.875L265.511 242.158L89.3209 94.3173Z" fill="#562069"/>
<path d="M365.007 0L410.97 38.5673C419.431 45.6673 420.535 58.2824 413.435 66.7439L265.594 242.934L204.31 191.511L365.007 0Z" fill="#8835A3"/>
<rect x="9" y="189" width="482" height="306" rx="16" fill="#DAF9EC" stroke="black" stroke-width="18"/>
<line x1="229" y1="264" x2="459" y2="264" stroke="black" stroke-width="20"/>
<line x1="229" y1="329" x2="459" y2="329" stroke="black" stroke-width="10"/>
<line x1="229" y1="359" x2="459" y2="359" stroke="black" stroke-width="10"/>
<line x1="229" y1="389" x2="459" y2="389" stroke="black" stroke-width="10"/>
<line x1="229" y1="418" x2="459" y2="418" stroke="black" stroke-width="10"/>
<ellipse cx="115.246" cy="289.08" rx="55.5385" ry="57.0798" fill="#E6C2A8"/>
<path d="M193 442.895C193 422.976 184.993 403.873 170.74 389.788C156.487 375.703 137.156 367.79 117 367.79C96.8436 367.79 77.5127 375.703 63.2599 389.788C49.0071 403.873 41 422.976 41 442.895L117 442.895H193Z" fill="#85399E"/>
</svg>
