<svg width="542" height="389" viewBox="0 0 542 389" fill="none" xmlns="http://www.w3.org/2000/svg">
<rect x="9" y="9" width="494" height="332" rx="16" fill="#FFE93F" stroke="black" stroke-width="18"/>
<line x1="13.9281" y1="17.947" x2="258.928" y2="194.947" stroke="black" stroke-width="10"/>
<line x1="253.064" y1="194.953" x2="497.064" y2="17.9527" stroke="black" stroke-width="10"/>
<path d="M397.148 319.352C382.659 319.352 369.851 317.364 358.724 313.386C347.598 309.456 338.246 303.656 330.67 295.986C323.095 288.315 317.366 278.917 313.483 267.79C309.6 256.663 307.659 243.926 307.659 229.58C307.659 215.706 309.624 203.301 313.554 192.364C317.531 181.426 323.284 172.146 330.812 164.523C338.388 156.852 347.574 151.005 358.369 146.98C369.212 142.955 381.475 140.943 395.159 140.943C408.464 140.943 420.112 143.121 430.102 147.477C440.14 151.786 448.521 157.634 455.244 165.02C462.015 172.359 467.081 180.621 470.443 189.807C473.852 198.992 475.557 208.462 475.557 218.216C475.557 225.081 475.225 232.042 474.562 239.097C473.9 246.152 472.503 252.638 470.372 258.557C468.241 264.428 464.951 269.163 460.5 272.761C456.097 276.36 450.131 278.159 442.602 278.159C439.288 278.159 435.642 277.638 431.665 276.597C427.688 275.555 424.16 273.827 421.082 271.412C418.005 268.997 416.182 265.754 415.614 261.682H414.761C413.625 264.428 411.873 267.032 409.506 269.494C407.186 271.956 404.132 273.921 400.344 275.389C396.603 276.857 392.034 277.496 386.636 277.307C380.481 277.07 375.06 275.697 370.372 273.188C365.685 270.631 361.755 267.174 358.582 262.818C355.457 258.415 353.09 253.325 351.48 247.548C349.918 241.724 349.136 235.451 349.136 228.727C349.136 222.335 350.083 216.488 351.977 211.185C353.871 205.882 356.499 201.241 359.861 197.264C363.27 193.287 367.247 190.115 371.793 187.747C376.385 185.332 381.333 183.841 386.636 183.273C391.371 182.799 395.68 183.012 399.562 183.912C403.445 184.764 406.641 186.066 409.151 187.818C411.66 189.523 413.246 191.417 413.909 193.5H414.761V185.545H429.818V249.75C429.818 253.727 430.931 257.231 433.156 260.261C435.382 263.292 438.625 264.807 442.886 264.807C447.716 264.807 451.409 263.15 453.966 259.835C456.57 256.521 458.346 251.407 459.293 244.494C460.287 237.581 460.784 228.727 460.784 217.932C460.784 211.587 459.908 205.337 458.156 199.182C456.452 192.979 453.848 187.179 450.344 181.781C446.887 176.384 442.508 171.625 437.205 167.506C431.902 163.386 425.675 160.167 418.526 157.847C411.423 155.479 403.35 154.295 394.307 154.295C383.18 154.295 373.213 156.024 364.406 159.48C355.647 162.889 348.189 167.884 342.034 174.466C335.926 181 331.262 188.955 328.043 198.33C324.87 207.657 323.284 218.263 323.284 230.148C323.284 242.222 324.87 252.946 328.043 262.321C331.262 271.696 335.997 279.603 342.247 286.043C348.545 292.482 356.333 297.359 365.614 300.673C374.894 304.035 385.595 305.716 397.716 305.716C402.924 305.716 408.062 305.219 413.128 304.224C418.194 303.23 422.669 302.141 426.551 300.957C430.434 299.774 433.227 298.898 434.932 298.33L438.909 311.398C435.973 312.629 432.138 313.86 427.403 315.091C422.716 316.322 417.697 317.34 412.347 318.145C407.044 318.95 401.977 319.352 397.148 319.352ZM388.909 262.818C395.254 262.818 400.391 261.54 404.321 258.983C408.251 256.426 411.116 252.567 412.915 247.406C414.714 242.245 415.614 235.735 415.614 227.875C415.614 219.92 414.619 213.718 412.631 209.267C410.642 204.816 407.706 201.691 403.824 199.892C399.941 198.093 395.159 197.193 389.477 197.193C384.08 197.193 379.463 198.614 375.628 201.455C371.84 204.248 368.928 207.989 366.892 212.676C364.903 217.316 363.909 222.383 363.909 227.875C363.909 233.936 364.714 239.641 366.324 244.991C367.934 250.295 370.562 254.603 374.207 257.918C377.853 261.185 382.754 262.818 388.909 262.818Z" fill="black"/>
</svg>
