<svg width="651" height="422" viewBox="0 0 651 422" fill="none" xmlns="http://www.w3.org/2000/svg">
<rect x="15.0001" y="9" width="552" height="394" rx="16" fill="#562069" stroke="black" stroke-width="18"/>
<path d="M31.3525 402.542L565.221 402.232C572.737 402.228 579.22 396.996 580.834 389.687L580.908 389.338L636.261 109.597C638.219 99.7018 630.643 90.485 620.556 90.4907L95.0964 90.7958C87.6334 90.8003 81.1645 95.964 79.506 103.24L15.744 382.986C13.4606 393.004 21.0773 402.548 31.3525 402.542Z" fill="#8835A3" stroke="black" stroke-width="18"/>
<path d="M324.935 170.526C282.826 176.378 254.785 211.653 261.309 248.627C267.833 285.601 306.681 311.581 348.79 305.729C390.899 299.878 418.939 264.603 412.416 227.629C405.892 190.655 367.044 164.675 324.935 170.526Z" fill="#F9FF43" stroke="black" stroke-width="8"/>
<mask id="path-4-inside-1_5_82" fill="white">
<path d="M379.246 312.129L321.2 320.195L327.511 355.966L385.558 347.899L379.246 312.129Z"/>
</mask>
<path d="M379.246 312.129L321.2 320.195L327.511 355.966L385.558 347.899L379.246 312.129Z" fill="#D9D9D9"/>
<path d="M321.2 320.195L329.124 319.094L335.435 354.864L327.511 355.966L319.588 357.067L313.276 321.296L321.2 320.195ZM385.558 347.899L377.634 349.001L371.323 313.23L379.246 312.129L387.17 311.028L393.482 346.798L385.558 347.899Z" fill="black" mask="url(#path-4-inside-1_5_82)"/>
<mask id="path-6-inside-2_5_82" fill="white">
<path d="M374.955 287.805L316.909 295.872L321.2 320.195L379.246 312.129L374.955 287.805Z"/>
</mask>
<path d="M374.955 287.805L316.909 295.872L321.2 320.195L379.246 312.129L374.955 287.805Z" fill="#F9FF43"/>
<path d="M316.909 295.872L324.832 294.77L329.124 319.094L321.2 320.195L313.276 321.296L308.985 296.973L316.909 295.872ZM379.246 312.129L371.322 313.23L367.031 288.907L374.955 287.805L382.879 286.704L387.17 311.028L379.246 312.129Z" fill="black" mask="url(#path-6-inside-2_5_82)"/>
<mask id="path-8-inside-3_5_82" fill="white">
<path d="M376.016 349.225L337.848 354.529L340.878 371.699L379.045 366.395L376.016 349.225Z"/>
</mask>
<path d="M376.016 349.225L337.848 354.529L340.878 371.699L379.045 366.395L376.016 349.225Z" fill="#D9D9D9"/>
<path d="M340.878 371.699L342.268 379.577L334.344 380.678L332.954 372.8L340.878 371.699ZM379.045 366.395L386.969 365.294L388.359 373.172L380.435 374.273L379.045 366.395ZM337.848 354.529L345.772 353.428L348.802 370.598L340.878 371.699L332.954 372.8L329.925 355.63L337.848 354.529ZM340.878 371.699L339.488 363.82L377.655 358.517L379.045 366.395L380.435 374.273L342.268 379.577L340.878 371.699ZM379.045 366.395L371.121 367.496L368.092 350.326L376.016 349.225L383.94 348.124L386.969 365.294L379.045 366.395Z" fill="black" mask="url(#path-8-inside-3_5_82)"/>
<rect x="3.6077" y="-0.893425" width="13.5202" height="60.2781" transform="matrix(0.560743 -0.82799 0.882336 0.47062 189.373 179.122)" fill="#F9FF43" stroke="black" stroke-width="5"/>
<rect x="2.89193" y="-2.33462" width="13.5202" height="60.2781" transform="matrix(0.158207 -0.987406 0.998565 0.0535584 181.766 234.933)" fill="#F9FF43" stroke="black" stroke-width="5"/>
<rect x="3.4062" y="1.39814" width="14.8416" height="55.8111" transform="matrix(0.938143 -0.346247 0.424336 0.905505 235.673 130.182)" fill="#F9FF43" stroke="black" stroke-width="5"/>
</svg>
